<?xml version="1.0" standalone="no"?>
<!DOCTYPE svg PUBLIC "-//W3C//DTD SVG 20010904//EN"
 "http://www.w3.org/TR/2001/REC-SVG-20010904/DTD/svg10.dtd">
<svg version="1.0" xmlns="http://www.w3.org/2000/svg"
 width="700.000000pt" height="700.000000pt" viewBox="0 0 700.000000 700.000000"
 preserveAspectRatio="xMidYMid meet">
<metadata>
Created by potrace 1.14, written by Peter Selinger 2001-2017
</metadata>
<g transform="translate(0.000000,700.000000) scale(0.100000,-0.100000)"
fill="#000000" stroke="none">
<path d="M3733 5404 c-83 -17 -173 -66 -226 -123 -30 -32 -58 -51 -88 -60 -78
-23 -151 -63 -214 -116 l-61 -52 -149 -7 c-83 -4 -155 -7 -162 -8 -17 -2 -50
-148 -54 -240 l-3 -48 -50 -16 c-145 -48 -340 -138 -453 -210 -130 -82 -277
-212 -368 -324 -31 -39 -101 -153 -124 -201 -20 -45 -65 -181 -76 -233 -5 -22
-10 -27 -26 -23 -51 13 -54 -4 -22 -102 7 -24 11 -51 8 -58 -3 -8 2 -24 10
-36 8 -12 15 -31 15 -43 0 -12 7 -41 16 -65 8 -24 17 -51 19 -59 4 -19 133
-523 187 -730 22 -85 41 -162 43 -170 2 -8 19 -77 39 -153 20 -76 38 -152 41
-170 21 -124 90 -216 230 -306 39 -24 73 -49 77 -55 4 -6 8 -7 8 -2 0 5 6 4
13 -2 6 -6 17 -11 22 -11 21 -2 45 -13 45 -20 0 -4 10 -8 22 -8 13 -1 32 -6
43 -11 11 -6 40 -16 65 -23 25 -7 50 -15 55 -18 6 -3 15 -6 20 -7 39 -6 132
-27 139 -32 6 -3 19 -6 30 -7 82 -8 204 -31 199 -38 -3 -5 4 -4 14 2 11 6 23
8 26 5 3 -3 19 -6 36 -6 17 -1 31 -4 31 -7 0 -3 33 -6 73 -7 152 -2 226 -8
220 -18 -4 -5 -1 -6 8 0 20 12 161 12 178 0 11 -8 13 -8 8 0 -4 8 15 11 61 12
37 1 79 3 95 5 15 2 30 0 33 -4 3 -5 11 -9 17 -9 7 0 6 4 -3 10 -11 7 -1 10
35 10 28 0 79 5 115 10 36 5 90 12 120 16 30 3 66 8 80 11 14 2 36 5 50 6 14
1 27 5 30 8 3 3 31 11 63 18 32 7 102 27 155 44 53 17 99 31 102 32 3 0 28 12
55 25 28 13 52 24 55 24 5 2 43 25 105 65 39 26 162 141 157 148 -1 2 4 16 11
31 13 25 23 59 33 107 13 69 39 165 43 165 3 0 7 17 8 37 1 21 7 39 13 41 5 2
8 8 5 12 -3 5 6 51 20 103 14 52 25 98 25 102 0 3 6 3 13 -1 9 -6 9 -5 0 8 -7
8 -10 18 -6 22 4 3 8 15 10 25 1 11 14 63 29 118 14 54 27 105 29 113 2 8 8
35 15 60 6 25 20 81 30 126 11 45 24 93 29 107 5 14 7 28 4 31 -4 3 -2 6 3 6
5 0 10 8 11 18 1 18 4 32 23 102 7 25 13 51 14 58 1 8 7 17 12 20 11 8 16 52
18 147 0 39 6 73 11 77 6 5 6 8 -1 8 -7 0 -12 27 -13 73 -8 241 -9 253 -33
229 -7 -7 -19 -12 -27 -12 -8 0 -12 3 -8 6 8 8 -55 126 -111 204 -61 87 -219
242 -317 312 -83 58 -219 135 -315 177 -148 65 -172 75 -182 73 -5 -1 -8 1 -9
6 0 4 -2 34 -5 67 -2 33 -6 69 -7 80 -8 49 -31 141 -36 147 -7 8 -125 20 -204
20 -52 1 -56 2 -43 17 21 23 42 81 45 122 4 54 -14 109 -50 152 -61 74 -152
98 -276 71z"/>
<path d="M5396 3567 c3 -10 9 -15 12 -12 3 3 0 11 -7 18 -10 9 -11 8 -5 -6z"/>
<path d="M5470 3321 c0 -6 4 -13 10 -16 6 -3 7 1 4 9 -7 18 -14 21 -14 7z"/>
<path d="M5276 3127 c3 -10 9 -15 12 -12 3 3 0 11 -7 18 -10 9 -11 8 -5 -6z"/>
<path d="M5350 3122 c0 -5 7 -9 15 -9 8 0 12 4 9 9 -3 4 -9 8 -15 8 -5 0 -9
-4 -9 -8z"/>
<path d="M5239 3073 c-13 -16 -12 -17 4 -4 16 13 21 21 13 21 -2 0 -10 -8 -17
-17z"/>
<path d="M5234 3000 c0 -13 4 -16 10 -10 7 7 7 13 0 20 -6 6 -10 3 -10 -10z"/>
<path d="M5300 3006 c0 -2 8 -10 18 -17 15 -13 16 -12 3 4 -13 16 -21 21 -21
13z"/>
<path d="M5315 2929 c-4 -6 -5 -12 -2 -15 2 -3 7 2 10 11 7 17 1 20 -8 4z"/>
<path d="M5186 2238 c3 -5 10 -6 15 -3 13 9 11 12 -6 12 -8 0 -12 -4 -9 -9z"/>
<path d="M5030 2166 c0 -2 7 -7 16 -10 8 -3 12 -2 9 4 -6 10 -25 14 -25 6z"/>
<path d="M5109 1963 c-13 -16 -12 -17 4 -4 16 13 21 21 13 21 -2 0 -10 -8 -17
-17z"/>
<path d="M5025 1840 c-3 -6 1 -7 9 -4 18 7 21 14 7 14 -6 0 -13 -4 -16 -10z"/>
<path d="M4756 1793 c-6 -14 -5 -15 5 -6 7 7 10 15 7 18 -3 3 -9 -2 -12 -12z"/>
<path d="M4427 1679 c7 -7 15 -10 18 -7 3 3 -2 9 -12 12 -14 6 -15 5 -6 -5z"/>
<path d="M4545 1680 c-3 -6 1 -7 9 -4 18 7 21 14 7 14 -6 0 -13 -4 -16 -10z"/>
<path d="M4870 1676 c7 -7 13 -7 20 0 6 6 3 10 -10 10 -13 0 -16 -4 -10 -10z"/>
<path d="M2990 1486 c0 -2 7 -7 16 -10 8 -3 12 -2 9 4 -6 10 -25 14 -25 6z"/>
</g>
</svg>
